# xmcd CD database file
#
# Track frame offsets:
#	150
#	18326
#	37093
#	61100
#	75033
#	90912
#	110571
#	124373
#	153374
#	182645
#	212266
#	230682
#	254596
#	278401
#	299794
#
# Disc length: 4555 seconds
#
# Revision: 0
# Processed by: cddbd v1.5.1PL2 Copyright (c) Steve Scherf et al.
# Submitted via: CDex 1.51
#
DISCID=c511c90f
DTITLE=Buddy De Franco - The Bright One
DYEAR=2002
DGENRE=Jazz
TTITLE0=Cable Car
TTITLE1=Yesterdays
TTITLE2=Lover Man
TTITLE3=Jack The Fieldstalker
TTITLE4=Deep Purple
TTITLE5=If I Should Loose You
TTITLE6=Titoro
TTITLE7=Mine
TTITLE8=Now's The Time
TTITLE9=Gerry's Tune
TTITLE10=Laura
TTITLE11=I'll Remember April
TTITLE12=A Foggy Day
TTITLE13=What Can I Say Dear
TTITLE14=The Bright One
EXTD=YEAR: 2002
EXTT0=
EXTT1=
EXTT2=
EXTT3=
EXTT4=
EXTT5=
EXTT6=
EXTT7=
EXTT8=
EXTT9=
EXTT10=
EXTT11=
EXTT12=
EXTT13=
EXTT14=
PLAYORDER=
